<?xml version="1.0" encoding="utf-8"?>
<!-- Copyright © 2013 Apple Inc. All rights reserved. -->
<svg version="1.1" xmlns="http://www.w3.org/2000/svg" viewBox="0 0 16 16">
    <path d="M8,9.848c-0.666,0-1.206,0.54-1.206,1.205c0,0.666,0.54,1.205,1.206,1.205s1.204-0.539,1.204-1.205
    C9.204,10.388,8.666,9.848,8,9.848z M8.875,4.489c0-0.483-0.392-0.875-0.875-0.875S7.125,4.005,7.125,4.489v3.5
    c0,0.483,0.392,0.875,0.875,0.875s0.875-0.392,0.875-0.875V4.489z M13.984,10.516l-3.516,3.499l-4.962-0.012l-3.5-3.517L2.02,5.524
    l3.517-3.5l4.962,0.012l3.499,3.517L13.984,10.516z"/>
</svg>
