<?xml version="1.0" encoding="utf-8"?>
<!-- Copyright © 2013 Apple Inc. All rights reserved. -->
<svg version="1.1" xmlns="http://www.w3.org/2000/svg" viewBox="0 0 16 16">
    <path d="M8,10.335c-0.703,0-1.272,0.57-1.272,1.274c0,0.702,0.57,1.271,1.272,1.271c0.702,0,1.272-0.569,1.272-1.271
    C9.272,10.905,8.702,10.335,8,10.335z M8.909,4.708C8.909,4.206,8.501,3.8,8,3.8S7.091,4.206,7.091,4.708v3.633
    c0,0.501,0.408,0.909,0.909,0.909s0.909-0.408,0.909-0.909V4.708z M14.142,13.278c-0.349,0.507-1.068,0.68-1.541,0.68
    c-0.298,0-8.912,0-9.201,0c-0.474,0-1.193-0.173-1.541-0.68c-0.329-0.477-0.148-1.309,0.105-1.76
    c1.416-2.53,2.793-5.417,4.797-9.186C7.411,1.112,8.686,1.201,9.27,2.315c1.398,2.674,3.351,6.673,4.767,9.203
    C14.289,11.97,14.47,12.802,14.142,13.278z" fill="#e0a404"/>
</svg>
