<?xml version="1.0" encoding="utf-8"?>
<!-- Copyright © 2013 Apple Inc. All rights reserved. -->
<svg version="1.1" xmlns="http://www.w3.org/2000/svg" viewBox="0 0 16 16">
    <path d="M10,4H8.854C8.739,4.355,8.416,4.616,8.022,4.616C7.627,4.616,7.305,4.355,7.189,4H6v8H7.2
    c0.129-0.33,0.446-0.565,0.823-0.565c0.375,0,0.692,0.235,0.822,0.565H10V4z M13.499,10.991v1.5H12V14H8.845
    c-0.13-0.33-0.447-0.566-0.822-0.566C7.646,13.434,7.329,13.67,7.2,14H4v-1.509H2.502v-1.5H4v-1H2.502v-1.5H4v-1H2.502v-1.5H4v-1
    H2.502v-1.5H4V2h3.189c0.116,0.356,0.438,0.617,0.833,0.617c0.394,0,0.717-0.261,0.832-0.617H12v1.491h1.499v1.5H12v1h1.499v1.5H12
    v1h1.499v1.5H12v1H13.499z"/>
</svg>
