<?xml version="1.0" encoding="utf-8"?>
<!-- Copyright © 2013 Apple Inc. All rights reserved. -->
<svg version="1.1" xmlns="http://www.w3.org/2000/svg" viewBox="0 0 16 16">
    <path d="M14,14 L2,14 L4,5 L5.55000905,5 C5.51721456,4.83843954 5.5,4.67123011 5.5,4.5 C5.5,3.11928806 6.61928806,2 8,2 C9.38071194,2 10.5,3.11928806 10.5,4.5 C10.5,4.67123011 10.4827854,4.83843954 10.4499909,5 L12,5 Z M5.42102596,7.00000003 L4.50620499,12.0000001 L11.5142954,12.0000001 L10.6140088,7.00000003 Z M8,5.5 C8.55228478,5.5 9,5.05228478 9,4.5 C9,3.94771522 8.55228478,3.5 8,3.5 C7.44771522,3.5 7,3.94771522 7,4.5 C7,5.05228478 7.44771522,5.5 8,5.5 Z M8,5.5" fill="#000000"></path>
</svg>
